<svg width="48" height="29" viewBox="0 0 48 29" fill="none" xmlns="http://www.w3.org/2000/svg">
<g id="Standard Collection 4">
<g id="Group">
<path id="Vector" d="M44.8534 3.26899C42.9968 1.35739 40.5258 0.210561 37.9054 0.0443272C35.2851 -0.121907 32.6961 0.703918 30.6258 2.36639C28.7352 0.853661 26.4093 0.0322705 24.0152 0.0317927C21.621 0.031315 19.2949 0.851779 17.4038 2.36375C15.247 0.62076 12.5255 -0.208679 9.795 0.0447626C7.06451 0.298204 4.53091 1.61542 2.71143 3.72748C0.891956 5.83954 -0.0761742 8.58718 0.00468615 11.4094C0.0855465 14.2317 1.2093 16.9159 3.14653 18.9137L9.76241 25.7283C9.76753 25.7334 9.77266 25.7384 9.77842 25.7436C9.78419 25.7489 9.78579 25.7514 9.78947 25.7552C9.79636 25.7623 9.80372 25.7687 9.81061 25.7758C9.91577 25.883 10.0225 25.9874 10.1309 26.0891C10.1866 26.1418 10.243 26.1927 10.2997 26.244C10.3457 26.2852 10.3919 26.3261 10.4383 26.3665C12.3242 28.0123 14.7027 28.9396 17.174 28.9924C19.6455 29.0453 22.0592 28.2207 24.0099 26.657C26.0802 28.3193 28.6693 29.1453 31.2895 28.979C33.9099 28.8128 36.3809 27.6659 38.2375 25.7544L44.8535 18.9407C46.8685 16.8609 48 14.0428 48 11.1048C48 8.16681 46.8683 5.3488 44.8534 3.26899ZM24.0131 2.91804C25.5861 2.917 27.124 3.3966 28.4321 4.29612C29.7404 5.19564 30.76 6.47463 31.3621 7.97124C31.9642 9.46784 32.1216 11.1148 31.8144 12.7036C31.5073 14.2923 30.7494 15.7516 29.6366 16.8966L24.0131 22.688L18.3894 16.8966C17.2766 15.7516 16.5187 14.2923 16.2116 12.7035C15.9044 11.1147 16.0619 9.46778 16.664 7.97117C17.2661 6.47455 18.2858 5.19555 19.5939 4.29605C20.9022 3.39655 22.4401 2.91697 24.0131 2.91804ZM9.4439 17.9187C9.44104 16.8426 9.64546 15.7767 10.0453 14.7826C10.4452 13.7885 11.0325 12.8859 11.7734 12.1271L13.2701 10.5856C13.1977 12.1264 13.4391 13.6658 13.9789 15.1048C14.5187 16.5436 15.345 17.8503 16.4046 18.9407L21.9131 24.6139C20.7249 25.471 19.3311 25.9758 17.8835 26.0731C16.4361 26.1705 14.9903 25.8568 13.704 25.1661C12.4177 24.4752 11.3402 23.4343 10.5889 22.1562C9.83769 20.8782 9.4415 19.4122 9.44358 17.9182L9.4439 17.9187ZM5.13105 16.8694C3.72341 15.42 2.89474 13.4796 2.80873 11.4316C2.72272 9.38352 3.38562 7.3767 4.66649 5.80758C5.94736 4.23845 7.75306 3.22109 9.72688 2.95648C11.7007 2.69187 13.6991 3.19926 15.3273 4.3784L9.78851 10.0828C8.78622 11.1094 7.99161 12.3306 7.45067 13.6756C6.90974 15.0207 6.63321 16.4629 6.6371 17.9187C6.6371 18.0906 6.64099 18.2618 6.64879 18.4325L5.13105 16.8694ZM30.6295 26.1091C29.0046 26.1131 27.4182 25.6005 26.0867 24.6413L31.6223 18.9407C32.6819 17.8503 33.508 16.5436 34.0478 15.1047C34.5876 13.6658 34.8291 12.1264 34.7567 10.5856L36.2535 12.1271C37.3657 13.2726 38.123 14.7321 38.4298 16.3209C38.7368 17.9097 38.5792 19.5565 37.9771 21.0532C37.3752 22.5498 36.3558 23.8289 35.048 24.7289C33.74 25.6289 32.2024 26.1091 30.6295 26.1091ZM42.8689 16.8966L41.3776 18.4325C41.3851 18.2619 41.3889 18.0907 41.3892 17.9187C41.3931 16.4629 41.1165 15.0207 40.5756 13.6756C40.0347 12.3306 39.2399 11.1094 38.2377 10.0828L32.7027 4.38219C34.3338 3.21321 36.3308 2.71552 38.3004 2.98709C40.2701 3.25865 42.0696 4.27981 43.3448 5.84949C44.6199 7.41917 45.2782 9.42363 45.1902 11.4682C45.1021 13.5128 44.274 15.4494 42.8689 16.8966Z" fill="#292C44"/>
</g>
</g>
</svg>
