<svg id="Layer_1" enable-background="new 0 0 64 64" height="512" viewBox="0 0 64 64" width="512" xmlns="http://www.w3.org/2000/svg"><g><path d="m17.1 56h29.8c5.6 0 10.1-4.5 10.1-10.1v-22.9c0-1.1-.9-2-2-2h-9v-5.9c0-3.4-2.7-6.1-6.1-6.1h-15.8c-3.4 0-6.1 2.7-6.1 6.1v5.9h-9c-1.1 0-2 .9-2 2v22.9c0 5.6 4.5 10.1 10.1 10.1zm4.9-40.9c0-1.2.9-2.1 2.1-2.1h15.8c1.2 0 2.1.9 2.1 2.1v5.9h-20zm-11 9.9h7v4c0 1.1.9 2 2 2s2-.9 2-2v-4h20v4c0 1.1.9 2 2 2s2-.9 2-2v-4h7v20.9c0 3.4-2.7 6.1-6.1 6.1h-29.8c-3.4 0-6.1-2.7-6.1-6.1z"/></g></svg>